<?xml version="1.0" encoding="UTF-8"?>
<svg id="Layer_2" data-name="Layer 2" xmlns="http://www.w3.org/2000/svg" viewBox="0 0 85.58 74.29">
  <defs>
    <style>
      .cls-1 {
        fill-rule: evenodd;
      }
    </style>
  </defs>
  <g id="Layer_1-2" data-name="Layer 1">
    <path class="cls-1" d="m55.47,46.42c.77,0,1.38.62,1.38,1.38s-.61,1.38-1.38,1.38h-25.36c-.76,0-1.38-.62-1.38-1.38s.62-1.38,1.38-1.38h25.36ZM23.9,5.27l7.45,19.63h-14.89l7.44-19.63h0Zm45.24,19.63h-14.9l7.45-19.63,7.45,19.63h0Zm-7.45,9.45c-3.97,0-7.29-2.89-7.95-6.69h15.9c-.65,3.79-3.97,6.69-7.95,6.69h0Zm-37.79,0c-3.97,0-7.29-2.89-7.95-6.69h15.9c-.65,3.79-3.97,6.69-7.95,6.69h0Zm0,2.76c5.97,0,10.83-4.86,10.83-10.83,0-.17-.04-.34-.1-.49h0L25.89,2.76h15.52v37.62h-6.06c-.76,0-1.37.62-1.37,1.38s.61,1.38,1.37,1.38h14.88c.76,0,1.38-.62,1.38-1.38s-.62-1.38-1.38-1.38h-6.06V2.76h15.52l-8.74,23.04c-.06.15-.1.32-.1.49,0,5.97,4.86,10.83,10.83,10.83s10.83-4.86,10.83-10.83c0-.17-.04-.34-.1-.49L62.97.89c-.19-.54-.71-.89-1.29-.89H23.9c-.57,0-1.08.35-1.29.89l-9.45,24.91c-.06.15-.09.32-.09.49,0,5.97,4.85,10.83,10.82,10.83h0Zm56.76,27.9c-2.44-.26-4.95-.71-7.38-1.15-5.13-.93-10.43-1.89-15.69-1.13-5.62.81-10.47,3.5-14.81,8.24-5.54-5.9-11.58-8.59-18.89-8.59-6.5,0-12.62,1.98-18.96,2.64l-1.63-3.91c3.75-.47,7.57-1.58,11.27-2.66,5.22-1.52,10.14-2.95,14.74-2.69,5.03.29,8.88,2.62,12.16,7.33.65.95,2.07.92,2.69-.05,2.79-4.42,6.4-6.61,11.37-6.9,4.59-.27,9.7,1.07,15.12,2.49,3.84,1.01,7.8,2.05,11.66,2.49l-1.63,3.89h0Zm4.61-5.87c-.28-.37-.71-.6-1.17-.63-4.11-.29-8.51-1.44-12.77-2.56-5.39-1.41-10.95-2.88-15.98-2.58-5.31.31-9.45,2.54-12.6,6.81-3.56-4.53-7.93-6.89-13.28-7.19-5.06-.29-10.45,1.28-15.66,2.8-4.1,1.19-8.33,2.43-12.31,2.72-1.07.08-1.78,1.15-1.36,2.16l2.59,6.2c.26.64.92,1.02,1.62.97,2.88-.24,5.79-.78,8.59-1.31,9.83-1.86,19.11-3.62,28.65,7.22.64.73,1.81.73,2.44-.02,9.13-10.7,18.66-8.98,28.76-7.15,2.78.5,5.64,1.02,8.47,1.26.71.06,1.35-.33,1.63-.97l2.58-6.2c.21-.52.14-1.09-.19-1.53Z"/>
  </g>
</svg>