<?xml version="1.0" encoding="UTF-8"?>
<svg id="Layer_2" data-name="Layer 2" xmlns="http://www.w3.org/2000/svg" viewBox="0 0 50 49.97">
  <g id="Layer_1-2" data-name="Layer 1">
    <path d="m25,0C11.22,0,0,11.22,0,25s10.68,24.45,24,24.97v-10.97c0-2.76-2.24-5-5-5s-5-2.24-5-5v-11.59l-2.29,2.29c-.39.39-1.02.39-1.41,0s-.39-1.02,0-1.41l4-4c.39-.39,1.02-.39,1.41,0l4,4c.39.39.39,1.02,0,1.41-.2.2-.45.29-.71.29s-.51-.1-.71-.29l-2.29-2.29v11.59c0,1.65,1.35,3,3,3,2.55,0,4.77,1.37,6,3.41,1.22-2.04,3.45-3.41,6-3.41,1.65,0,3-1.35,3-3v-11.59l-2.29,2.29c-.39.39-1.02.39-1.41,0s-.39-1.02,0-1.41l4-4c.39-.39,1.02-.39,1.41,0l4,4c.39.39.39,1.02,0,1.41-.19.2-.45.29-.71.29s-.51-.1-.71-.29l-2.29-2.29v11.59c0,2.76-2.24,5-5,5s-5,2.24-5,5v10.97c13.32-.53,24-11.52,24-24.97S38.78,0,25,0Z"/>
  </g>
</svg>