<?xml version="1.0" encoding="UTF-8"?>
<svg id="Layer_2" data-name="Layer 2" xmlns="http://www.w3.org/2000/svg" viewBox="0 0 83.56 75.86">
  <defs>
    <style>
      .cls-1 {
        fill-rule: evenodd;
      }
    </style>
  </defs>
  <g id="Layer_1-2" data-name="Layer 1">
    <path class="cls-1" d="m78.61,67.04c-2.47-.27-4.98-.8-7.43-1.31-4.87-1-9.9-2.05-14.99-1.34-5.35.75-10.08,3.38-14.42,8.03-4.33-4.65-9.06-7.28-14.42-8.03-7.74-1.06-15.04,1.83-22.41,2.65l-1.72-4.52c3.79-.51,7.63-1.73,11.37-2.92,5.03-1.6,9.79-3.12,14.23-2.95,4.85.17,8.61,2.36,11.83,6.91.55.78,1.7.78,2.25,0,3.22-4.55,6.98-6.74,11.82-6.91,4.45-.17,9.2,1.35,14.24,2.95,3.73,1.19,7.58,2.42,11.37,2.92l-1.72,4.52h0Zm-36.83-21.74c.76,0,1.38.62,1.38,1.38v12.26c.74-.75,1.52-1.41,2.32-2,0-6.19.01-13.04.02-16.64,0-3.51,1.41-6.57,4.07-8.86l2.18-1.87c.24-.21.38-.5.41-.82.08-1.07-1.16-1.68-1.97-.99-.28.23-.72.63-1.23,1.1-4.45,4.07-6,5.19-7.18,5.19s-2.73-1.12-7.19-5.19c-.51-.47-.95-.87-1.23-1.1-.24-.2-.55-.31-.87-.28-1.08.08-1.48,1.4-.69,2.09l2.18,1.87c2.66,2.29,4.07,5.36,4.07,8.86,0,3.59.01,10.44.02,16.64.81.58,1.58,1.25,2.32,2v-12.26c0-.76.62-1.38,1.38-1.38h0Zm-16.93-22.3c-.58-.18-1.21.05-1.55.56l-1.05,1.57-4.65,8.04c-.49.86-1.79.71-2.06-.27-.08-.29-.04-.59.11-.85l6.61-11.45c.77-1.36.71-1.44,1.86-1.44h11.36c.38,3.14,3.06,5.57,6.29,5.57s5.91-2.43,6.29-5.57h9.85c1.93-.03,2.47-.11,3.22,1.18l6.77,11.72c.31.54.13,1.23-.41,1.54-.54.3-1.23.12-1.53-.42l-5.62-9.73c-.6-1.03-2.14-.88-2.51.27l-1.54,4.79c-.11.33-.08.68.06.99l5.24,11.48h-3.25c-.76,0-1.38.61-1.38,1.38v11.57c-.94-.07-2.08-.09-3.02,0v-11.78c0-.76-.62-1.38-1.38-1.38s-1.38.62-1.38,1.38v12.2c-1.02.24-2,.57-2.94,1,0-5.74.01-11.74.02-15.02,0-2.73,1.05-5.01,3.11-6.78l2.18-1.87c2.65-2.29,1.23-6.68-2.29-6.94-1.05-.08-2.08.25-2.88.94-1.53,1.32-5.2,4.87-6.61,5.57-1.41-.7-5.08-4.26-6.61-5.57-2.66-2.29-6.79-.21-6.52,3.29.08,1.05.56,2.02,1.36,2.71l2.18,1.87c2.06,1.77,3.11,4.05,3.11,6.78,0,3.28,0,9.28.02,15.02-.94-.43-1.92-.76-2.94-1v-12.2c0-.76-.62-1.38-1.38-1.38s-1.38.62-1.38,1.38v11.78c-1.14-.1-2.64-.04-3.79.08v-29.68c0-.61-.4-1.15-.98-1.32h0Zm16.93-8.2c-1.97,0-3.58,1.61-3.58,3.58s1.61,3.57,3.58,3.57,3.58-1.6,3.58-3.57-1.61-3.58-3.58-3.58h0Zm41.5,45.82c-.27-.39-.71-.64-1.19-.68-7.12-.58-14.98-4.43-22.37-5.68v-10.53h3.03c1.46,0,2.43-1.52,1.87-2.75l-5.54-12.15.42-1.32,4.06,7.03c1.07,1.86,3.45,2.49,5.31,1.42,1.86-1.07,2.5-3.45,1.42-5.31l-6.77-11.72c-1.49-2.57-3.33-2.57-5.28-2.56h-10.46c-.84-2.52-3.22-4.34-6.02-4.34s-5.18,1.82-6.02,4.34h-11.64c-2.64,0-3.35,1.25-4.1,2.56l-6.76,11.72c-1.72,2.98,1.03,6.59,4.37,5.7,1-.27,1.84-.92,2.36-1.81l3.07-5.32v25.18c-7.07,1.33-14.71,4.98-21.59,5.53-1.05.09-1.75,1.15-1.37,2.14l2.59,6.78c.25.66.93,1.08,1.64,1.01,2.9-.25,5.8-.86,8.6-1.43,9.54-1.98,18.54-3.84,27.8,6.94.55.64,1.54.64,2.09,0,9.26-10.78,18.26-8.92,27.8-6.94,2.81.57,5.71,1.18,8.6,1.43.71.07,1.39-.35,1.64-1.01l2.59-6.78c.18-.49.12-1.03-.18-1.46h0ZM50.41,2.76c2.07,0,3.74,1.68,3.74,3.75s-1.68,3.74-3.74,3.74-3.74-1.68-3.74-3.74,1.68-3.75,3.74-3.75h0Zm0,10.26c-3.59,0-6.51-2.92-6.51-6.51s2.92-6.51,6.51-6.51,6.51,2.91,6.51,6.51-2.92,6.51-6.51,6.51h0ZM31.65,2.76c2.06,0,3.74,1.68,3.74,3.75s-1.68,3.74-3.74,3.74-3.74-1.68-3.74-3.74,1.68-3.75,3.74-3.75h0Zm0,10.26c-3.59,0-6.51-2.92-6.51-6.51S28.06,0,31.65,0s6.5,2.91,6.5,6.51-2.92,6.51-6.5,6.51Z"/>
  </g>
</svg>