<?xml version="1.0" encoding="UTF-8"?>
<svg id="Layer_2" data-name="Layer 2" xmlns="http://www.w3.org/2000/svg" viewBox="0 0 81.68 78.34">
  <defs>
    <style>
      .cls-1 {
        fill: #fff;
        fill-rule: evenodd;
      }
    </style>
  </defs>
  <g id="Layer_1-2" data-name="Layer 1">
    <path class="cls-1" d="m41.05,17.81c0-.77.62-1.38,1.38-1.38h7.6c.76,0,1.38.61,1.38,1.38s-.62,1.37-1.38,1.37h-7.6c-.76,0-1.38-.61-1.38-1.37h0Zm0,14.07c0-.76.62-1.38,1.38-1.38h23.4c.76,0,1.38.62,1.38,1.38s-.62,1.38-1.38,1.38h-23.4c-.76,0-1.38-.62-1.38-1.38h0Zm24.78,15.46h-23.4c-.76,0-1.38-.61-1.38-1.37s.62-1.38,1.38-1.38h23.4c.76,0,1.38.61,1.38,1.38s-.62,1.37-1.38,1.37h0Zm-.46,20.23c-2.65,0-4.81-2.15-4.81-4.81s2.16-4.8,4.81-4.8,4.81,2.15,4.81,4.8-2.16,4.81-4.81,4.81h0Zm0-12.38c-4.18,0-7.57,3.4-7.57,7.57s3.4,7.58,7.57,7.58,7.57-3.4,7.57-7.58-3.4-7.57-7.57-7.57h0Zm10.72,20.38c1.56,0,2.83-1.27,2.83-2.82V22.64h-15.05c-2.57,0-4.66-2.08-4.66-4.66V2.77h-31.32c-1.56,0-2.83,1.27-2.83,2.82v18.91c5.54.68,9.84,5.42,9.84,11.13,0,2.63-.93,5.18-2.61,7.2-1.5,1.79-2.76,4.62-.23,7.94l6.45,8.47h5.79c1.69,0,3.07,1.37,3.07,3.07v7.54c0,1.68-1.38,3.07-3.07,3.07h-4.05c0,.83.07,1.91-.15,2.65h35.99Zm-40.21,0H10.95c-.59,0-1.07-.48-1.07-1.06v-1.59h27.61v1.59c0,.58-.48,1.06-1.07,1.06h-.54Zm-33.11-5.72v-7.54c0-.17.14-.31.31-.31h41.23c.17,0,.31.15.31.31v7.54c0,.17-.14.3-.31.3H3.07c-.17,0-.31-.14-.31-.3h0Zm14.74-17.4c2.79-3.67,2.68-7.82-.31-11.39-1.27-1.52-1.97-3.45-1.97-5.42,0-4.67,3.8-8.46,8.46-8.46s8.46,3.8,8.46,8.46c0,1.99-.7,3.91-1.97,5.42-2.99,3.56-3.1,7.71-.31,11.39l5.17,6.8H12.33l5.17-6.8h0ZM61.97,4.9l14.99,14.99h-13.1c-1.05,0-1.9-.86-1.9-1.9V4.9h0Zm19.3,15.39L61.39.41c-.26-.26-.61-.41-.97-.41H27.89c-3.08,0-5.59,2.51-5.59,5.59v18.91c-5.54.68-9.84,5.42-9.84,11.13,0,2.63.93,5.18,2.61,7.2,1.5,1.79,2.76,4.62.23,7.94l-6.45,8.47H3.07c-1.69,0-3.07,1.37-3.07,3.07v7.54c0,1.68,1.38,3.07,3.07,3.07h4.05v1.59c0,2.11,1.72,3.83,3.83,3.83h65.14c3.08,0,5.59-2.51,5.59-5.59V21.27c0-.37-.15-.72-.4-.98Z"/>
  </g>
</svg>